<?xml version="1.0" encoding="utf-8"?>
<!-- Generator: Adobe Illustrator 27.7.0, SVG Export Plug-In . SVG Version: 6.00 Build 0)  -->
<svg version="1.2" baseProfile="tiny" id="g-Taiwan1-Artboard_1-interactions-img" xmlns="http://www.w3.org/2000/svg" xmlns:xlink="http://www.w3.org/1999/xlink"
	 x="0px" y="0px" viewBox="0 0 796 572.5" overflow="visible" xml:space="preserve">
<g>
	
		<ellipse id="Solomon1_00000132073387165099558780000001720461514136521617_" fill="#FFC502" cx="553.084" cy="122.746" rx="4.788" ry="4.632"/>
	
		<ellipse id="Kiribati1_00000096776742435188914740000017332103815516275585_" fill="#FF8800" cx="613.084" cy="171.746" rx="4.788" ry="4.632"/>
	
		<g id="Kiribati2_00000013906494185731856430000008590730111527569847_" transform="translate(602.4859416623235,158.22351654647056)">
		<path display="none" fill="none" stroke="#AAAAAA" d="M19.154,13.325h3.5l0,0l0,0"/>
		<text transform="matrix(1 0 0 1 22.9169 13.3253)" display="none" fill="#FF8800" font-family="'Georgia'" font-size="14px">Kiribati</text>
	</g>
	<g id="lines_00000057125440691945770540000011577541372716311728_">
		<g id="Marshall3_00000013888018231990841110000017837517383000363407_">
			
		</g>
		<g id="Nauru3_00000018213869232843725870000004512091787628057269_">
			
		</g>
		<g id="Tuvalu3_00000047760240222677834150000000360013554918943372_">
			
		</g>
		<g>
			<path fill="none" stroke="#FF8800" stroke-width="2.8" d="M610.476,171.938"/>
		</g>
		<g>
			<path fill="none" stroke="#FFC502" stroke-width="2.8" d="M546.896,126.81"/>
		</g>
		<g transform="translate(602.4859416623235,104.07027186656347)" display="none">
			<path display="inline" fill="none" stroke="#AAAAAA" d="M13.49,13.714h1.75V8.427h1.75"/>
			
				<text transform="matrix(1 0 0 1 20.4899 13.0473)" display="inline" fill="none" stroke="#FFFFFF" stroke-width="3.5" font-family="'Arial-BoldMT'" font-size="14px">marshall</text>
			
				<text transform="matrix(1 0 0 1 20.4899 13.0473)" display="inline" fill="#4328E7" font-family="'Arial-BoldMT'" font-size="14px">marshall</text>
		</g>
		<g transform="translate(666.0661163330078,52.92554077998453)" display="none">
			<path display="inline" fill="none" stroke="#AAAAAA" d="M13.49,13.714h3.5l0,0l0,0"/>
			
				<text transform="matrix(1 0 0 1 20.4899 18.3346)" display="inline" fill="none" stroke="#FFFFFF" stroke-width="3.5" font-family="'Arial-BoldMT'" font-size="14px">nauru</text>
			
				<text transform="matrix(1 0 0 1 20.4899 18.3346)" display="inline" fill="#9654E5" font-family="'Arial-BoldMT'" font-size="14px">nauru</text>
		</g>
		<g transform="translate(602.4859416623235,269.5385194996129)" display="none">
			<path display="inline" fill="none" stroke="#AAAAAA" d="M13.49,13.714h3.5l0,0l0,0"/>
			
				<text transform="matrix(1 0 0 1 20.4899 18.3345)" display="inline" fill="none" stroke="#FFFFFF" stroke-width="3.5" font-family="'Arial-BoldMT'" font-size="14px">tuvalu</text>
			
				<text transform="matrix(1 0 0 1 20.4899 18.3345)" display="inline" fill="#FF6283" font-family="'Arial-BoldMT'" font-size="14px">tuvalu</text>
		</g>
		<g transform="translate(602.4859416623235,158.22351654647056)">
			<path display="none" fill="none" stroke="#AAAAAA" d="M13.49,13.714h3.5l0,0l0,0"/>
		</g>
		
			<g id="Solomon2_00000101097210776497956900000013330057143164109746_" transform="translate(538.9057669916393,113.095812646548)">
			<path display="none" fill="none" stroke="#AAAAAA" d="M13.49,13.714h1.75v5.287h1.75"/>
			<text transform="matrix(1 0 0 1 19.0486 24.2446)" display="none" fill="#FFC502" font-family="'Georgia'" font-size="14px">Solomon Islands</text>
		</g>
	</g>
	<g id="Nauru1_00000133507777271387484160000006943522621284808324_" transform="translate(666.0661163330078,52.92554077998453)">
		<path display="none" fill="none" stroke="#AAAAAA" d="M13.393,13.966h3.5l0,0l0,0"/>
		
			<text transform="matrix(1 0 0 1 20.3932 18.5862)" fill="none" stroke="#FFFFFF" stroke-width="3.5" font-family="'Arial-BoldMT'" font-size="14px">nauru</text>
		<text transform="matrix(1 0 0 1 20.3932 18.5862)" display="none" fill="#9654E5" font-family="'Georgia'" font-size="14px">Nauru</text>
	</g>
	<g id="Tuvalu2_00000047742465753710611320000001783693463659018392_">
		<path fill="none" stroke="#FF6283" stroke-width="2.8" d="M37.809,316.598c21.193,15.293,42.387,30.587,63.58,45.128
			c21.194,14.541,42.387,42.119,63.58,42.119c21.194,0,42.387-123.349,63.581-123.349c21.251,0,42.502,3.009,63.754,3.009
			c21.193,0,42.387-15.043,63.58-15.043c21.193,0,42.387,27.077,63.58,27.077c21.194,0,42.387-21.06,63.58-21.06
			c21.252,0,42.503,1.501,63.755,3.008c21.193,1.504,42.387,3.761,63.58,6.018"/>
	</g>
	<g id="Nauru2_00000054955888405676899300000004101125579189745563_">
		<path fill="none" stroke="#9654E5" stroke-width="2.8" d="M37.809,199.266c21.193,0,42.387,0,63.58,0
			c21.194,0,42.387-27.076,63.58-27.076c21.194,0,42.387,18.051,63.581,18.051c21.251,0,42.502,0,63.754,0
			c21.193,0,42.387-24.069,63.58-24.069c21.193,0,42.387,42.12,63.58,42.12c21.194,0,42.387-90.256,63.58-90.256
			c21.252,0,42.503,42.119,63.755,42.119c21.193,0,42.387-50.643,63.58-66.187s42.387-21.31,63.58-27.076"/>
	</g>
	<g id="Marshall2_00000093165997550795174080000004387160126486593175_">
		<path fill="none" stroke="#4328E7" stroke-width="2.8" d="M164.969,148.121c21.194,0,42.387,0,63.581,0
			c21.251,0,42.502,0,63.754,0c21.193,0,42.387,0,63.58,0c21.193,0,42.387-60.17,63.58-60.17c21.194,0,42.387,150.426,63.58,150.426
			c21.252,0,42.503,0,63.755,0c21.193,0,42.387-60.17,63.58-120.341"/>
	</g>
	
		<g id="Marshall1_00000036237136922318249810000005859524293258256807_" transform="translate(602.4859416623235,104.07027186656347)">
		<path display="none" fill="none" stroke="#AAAAAA" d="M13.393,13.966h1.75V8.679h1.75"/>
		
			<text transform="matrix(1 0 0 1 20.3932 13.2989)" fill="none" stroke="#FFFFFF" stroke-width="3.5" font-family="'Arial-BoldMT'" font-size="14px">marshall</text>
		<text transform="matrix(1 0 0 1 20.3932 13.2989)" display="none" fill="#4328E7" font-family="'Georgia'" font-size="14px">Marshall Islands</text>
	</g>
	
		<line id="Palau1_00000016063343308070251070000014703055471351288219_" fill="#9EDF00" stroke="#57DF00" stroke-width="1.5" x1="28.858" y1="178.436" x2="672" y2="178.436"/>
	
		<line id="Graph_Line" style="opacity:0.51;" fill="none" stroke="#EEEEEE" stroke-width="1.5" x1="37.809" y1="328.812" x2="673.959" y2="328.812"/>
	
		<line id="Graph_Line_2" style="opacity:0.51;" fill="none" stroke="#EEEEEE" stroke-width="1.5" x1="36.019" y1="178.386" x2="672.169" y2="178.386"/>
</g>
<style>
#g-Taiwan1-Artboard_1-interactions-img rect, #g-Taiwan1-Artboard_1-interactions-img circle, #g-Taiwan1-Artboard_1-interactions-img path, #g-Taiwan1-Artboard_1-interactions-img line, #g-Taiwan1-Artboard_1-interactions-img polyline, #g-Taiwan1-Artboard_1-interactions-img polygon { vector-effect: non-scaling-stroke; }
</style>
</svg>

